<svg width="256" height="256" viewBox="0 0 256 256" fill="none" xmlns="http://www.w3.org/2000/svg">
<g clip-path="url(#clip0_0_3)">
<circle cx="128" cy="128" r="128" fill="#2E86AB"/>
<path d="M63.3027 218.699C62.0007 217.397 61.0241 215.851 60.373 214.061C59.8848 212.27 58.5827 210.805 56.4668 209.666C56.1413 207.225 55.653 204.458 55.002 201.365C54.5137 198.11 53.944 194.855 53.293 191.6C52.8047 188.182 52.3978 184.845 52.0723 181.59C51.9095 178.172 52.0723 175.079 52.5605 172.312C52.8861 170.848 53.3743 169.464 54.0254 168.162C54.8392 166.86 55.5716 165.639 56.2227 164.5C57.0365 163.198 57.6061 161.896 57.9316 160.594C58.4199 159.292 58.5013 157.99 58.1758 156.688C59.1523 156.525 59.722 156.036 59.8848 155.223C60.2103 154.246 61.0241 153.921 62.3262 154.246C63.4655 150.665 64.6862 147.329 65.9883 144.236C67.2904 141.144 68.6738 138.133 70.1387 135.203C71.6035 132.273 73.0684 129.344 74.5332 126.414C76.1608 123.322 77.6257 119.904 78.9277 116.16C76.1608 113.556 74.1263 110.789 72.8242 107.859C71.6849 104.767 70.7897 101.674 70.1387 98.582C69.4876 95.4896 68.9993 92.3971 68.6738 89.3047C68.3483 86.0495 67.6973 82.7943 66.7207 79.5391C68.6738 76.6094 71.0339 74.2493 73.8008 72.459C76.5677 70.5059 79.5788 68.9596 82.834 67.8203C86.252 66.5182 89.9141 65.5417 93.8203 64.8906C97.7266 64.0768 101.877 63.1816 106.271 62.2051C114.084 59.7637 121.083 57.8919 127.268 56.5898C133.452 55.125 139.475 53.9857 145.334 53.1719C151.193 52.1953 157.297 51.3815 163.645 50.7305C169.992 49.9167 177.316 48.7773 185.617 47.3125C185.78 47.8008 186.024 48.0449 186.35 48.0449C186.838 48.0449 187.408 48.0449 188.059 48.0449C188.547 49.1842 189.442 49.7539 190.744 49.7539C190.744 49.2656 190.663 48.8587 190.5 48.5332C190.5 48.0449 190.5 47.638 190.5 47.3125C190.826 47.3125 191.232 47.3939 191.721 47.5566C192.372 47.7194 192.86 47.8822 193.186 48.0449C193.674 48.2077 194.081 48.2077 194.406 48.0449C194.732 47.7194 194.813 47.1497 194.65 46.3359C196.604 49.7539 199.126 52.6022 202.219 54.8809C205.311 56.9967 208.729 58.8685 212.473 60.4961C212.635 61.9609 212.635 63.0189 212.473 63.6699C212.473 64.321 212.391 64.972 212.229 65.623C212.066 66.1113 211.984 66.7624 211.984 67.5762C211.984 68.2272 212.147 69.2038 212.473 70.5059C209.868 74.9004 206.857 78.3184 203.439 80.7598C200.184 83.2012 196.685 85.0729 192.941 86.375C189.198 87.6771 185.21 88.6536 180.979 89.3047C176.91 89.9557 172.678 90.6882 168.283 91.502C164.051 92.153 159.738 93.1296 155.344 94.4316C150.949 95.7337 146.636 97.6868 142.404 100.291C141.102 99.8027 139.882 99.64 138.742 99.8027C137.766 99.8027 136.708 99.9655 135.568 100.291C134.429 100.617 133.127 100.942 131.662 101.268C130.36 101.593 128.732 101.593 126.779 101.268C125.477 102.407 123.931 103.221 122.141 103.709C120.513 104.197 118.804 104.686 117.014 105.174C117.827 106.964 118.153 108.755 117.99 110.545C117.99 112.335 118.234 113.882 118.723 115.184C125.559 115.835 133.127 115.835 141.428 115.184C149.729 114.37 157.867 113.8 165.842 113.475C166.005 114.288 165.923 114.858 165.598 115.184C165.272 115.509 165.109 116.079 165.109 116.893C166.574 117.869 167.958 119.09 169.26 120.555C170.562 122.02 171.864 123.484 173.166 124.949C174.631 126.251 176.096 127.391 177.561 128.367C179.025 129.181 180.734 129.507 182.688 129.344C183.501 130.971 184.071 132.68 184.396 134.471C184.722 136.261 184.478 138.133 183.664 140.086C180.409 142.202 177.235 144.399 174.143 146.678C171.05 148.794 167.795 150.747 164.377 152.537C161.122 154.327 157.541 155.792 153.635 156.932C149.729 158.071 145.497 158.559 140.939 158.396C140.126 158.396 139.393 158.396 138.742 158.396C138.254 158.396 137.603 158.071 136.789 157.42C135.161 158.234 132.964 158.559 130.197 158.396C127.593 158.071 125.396 158.315 123.605 159.129C121.327 158.315 118.641 157.908 115.549 157.908C112.619 157.908 110.015 157.501 107.736 156.688C104.807 160.919 102.04 165.395 99.4355 170.115C96.8314 174.673 94.5527 179.555 92.5996 184.764C99.2728 185.74 104.807 186.147 109.201 185.984C113.596 185.822 117.746 185.496 121.652 185.008C125.559 184.52 129.546 184.031 133.615 183.543C137.847 183.055 142.974 182.892 148.996 183.055C153.065 181.102 157.704 179.799 162.912 179.148C168.283 178.335 173.247 177.195 177.805 175.73C179.432 176.219 180.816 177.195 181.955 178.66C183.094 179.962 184.152 181.346 185.129 182.811C186.268 184.113 187.408 185.252 188.547 186.229C189.686 187.205 191.151 187.531 192.941 187.205C193.755 188.019 194.243 188.995 194.406 190.135C194.732 191.274 194.976 192.332 195.139 193.309C195.464 194.285 195.871 195.099 196.359 195.75C196.848 196.238 197.743 196.401 199.045 196.238C195.952 202.586 192.453 207.469 188.547 210.887C184.803 214.305 180.49 216.99 175.607 218.943C170.887 220.734 165.516 222.117 159.494 223.094C153.635 223.908 147.043 224.965 139.719 226.268C137.928 226.593 136.382 226.593 135.08 226.268C133.941 225.779 132.72 225.535 131.418 225.535C126.861 226.349 121.408 227.163 115.061 227.977C108.876 228.79 102.609 229.116 96.2617 228.953C89.9141 228.79 83.8105 227.977 77.9512 226.512C72.0918 225.047 67.209 222.443 63.3027 218.699Z" fill="white"/>
</g>
<defs>
<clipPath id="clip0_0_3">
<rect width="256" height="256" fill="white"/>
</clipPath>
</defs>
</svg>
